<mxfile host="drawio-plugin" modified="2022-07-16T14:56:22.562Z" agent="5.0 (Macintosh; Intel Mac OS X 10_13_6) AppleWebKit/537.36 (KHTML, like Gecko) Chrome/97.0.4692.45 Safari/537.36" etag="HQwh7XGN2jsuD-wFwc0f" version="15.5.4" type="embed" pages="4"><diagram id="-bfu8zm3XWnDX9v1EqtF" name="main.py"><mxGraphModel dx="1356" dy="463" grid="1" gridSize="10" guides="1" tooltips="1" connect="1" arrows="1" fold="1" page="1" pageScale="1" pageWidth="850" pageHeight="1100" math="0" shadow="0"><root><mxCell id="0"/><mxCell id="1" parent="0"/><mxCell id="pbzMQaTU-FbMKkOJ14_H-2" value="main.py" style="shape=module;align=left;spacingLeft=20;align=center;verticalAlign=top;rounded=0;sketch=0;" parent="1" vertex="1"><mxGeometry y="120" width="100" height="50" as="geometry"/></mxCell><mxCell id="pbzMQaTU-FbMKkOJ14_H-3" value="addressbook.py" style="shape=module;align=left;spacingLeft=20;align=center;verticalAlign=top;rounded=0;sketch=0;" parent="1" vertex="1"><mxGeometry x="150" y="40" width="120" height="50" as="geometry"/></mxCell><mxCell id="pbzMQaTU-FbMKkOJ14_H-4" value="notebook.py" style="shape=module;align=left;spacingLeft=20;align=center;verticalAlign=top;rounded=0;sketch=0;" parent="1" vertex="1"><mxGeometry x="150" y="120" width="120" height="50" as="geometry"/></mxCell><mxCell id="pbzMQaTU-FbMKkOJ14_H-5" value="clean_folder.py" style="shape=module;align=left;spacingLeft=20;align=center;verticalAlign=top;rounded=0;sketch=0;" parent="1" vertex="1"><mxGeometry x="150" y="190" width="120" height="50" as="geometry"/></mxCell><mxCell id="pbzMQaTU-FbMKkOJ14_H-10" value="Use" style="endArrow=open;endSize=12;dashed=1;html=1;rounded=1;sketch=0;curved=0;entryX=0.058;entryY=0.48;entryDx=0;entryDy=0;entryPerimeter=0;" parent="1" target="pbzMQaTU-FbMKkOJ14_H-4" edge="1"><mxGeometry width="160" relative="1" as="geometry"><mxPoint x="100" y="144" as="sourcePoint"/><mxPoint x="200" y="144.5" as="targetPoint"/></mxGeometry></mxCell><mxCell id="pbzMQaTU-FbMKkOJ14_H-11" value="Use" style="endArrow=open;endSize=12;dashed=1;html=1;rounded=1;sketch=0;curved=0;exitX=0.61;exitY=1.06;exitDx=0;exitDy=0;exitPerimeter=0;" parent="1" source="pbzMQaTU-FbMKkOJ14_H-2" edge="1"><mxGeometry width="160" relative="1" as="geometry"><mxPoint x="30" y="170" as="sourcePoint"/><mxPoint x="140" y="210" as="targetPoint"/><Array as="points"><mxPoint x="61" y="200"/><mxPoint x="61" y="210"/><mxPoint x="120" y="210"/></Array></mxGeometry></mxCell><mxCell id="pbzMQaTU-FbMKkOJ14_H-12" value="Use" style="endArrow=open;endSize=12;dashed=1;html=1;rounded=1;sketch=0;curved=0;exitX=0.6;exitY=0;exitDx=0;exitDy=0;exitPerimeter=0;" parent="1" source="pbzMQaTU-FbMKkOJ14_H-2" edge="1"><mxGeometry x="0.3304" width="160" relative="1" as="geometry"><mxPoint x="60" y="110" as="sourcePoint"/><mxPoint x="150" y="64.5" as="targetPoint"/><Array as="points"><mxPoint x="60" y="65"/></Array><mxPoint as="offset"/></mxGeometry></mxCell></root></mxGraphModel></diagram><diagram id="W9Cf6o9csffZMWOoxRGq" name="addressbook.py"><mxGraphModel dx="1595" dy="1645" grid="1" gridSize="10" guides="1" tooltips="1" connect="1" arrows="1" fold="1" page="1" pageScale="1" pageWidth="850" pageHeight="1100" math="0" shadow="0"><root><mxCell id="sEL-bxdKrqtqhlJgBILY-0"/><mxCell id="sEL-bxdKrqtqhlJgBILY-1" parent="sEL-bxdKrqtqhlJgBILY-0"/><mxCell id="kiKf0ADsLlN5hotvPutV-0" value="&lt;p style=&quot;margin: 0px ; margin-top: 4px ; text-align: center&quot;&gt;&lt;i&gt;&amp;lt;&amp;lt;Interface&amp;gt;&amp;gt;&lt;/i&gt;&lt;br&gt;&lt;b&gt;&lt;i&gt;Field(ABC)&lt;/i&gt;&lt;/b&gt;&lt;/p&gt;&lt;hr size=&quot;1&quot;&gt;&lt;p style=&quot;margin: 0px ; margin-left: 4px&quot;&gt;+ value: str&lt;br&gt;&lt;/p&gt;&lt;hr size=&quot;1&quot;&gt;&lt;p style=&quot;margin: 0px ; margin-left: 4px&quot;&gt;- init()&lt;/p&gt;&lt;p style=&quot;margin: 0px ; margin-left: 4px&quot;&gt;- str()&lt;/p&gt;&lt;p style=&quot;margin: 0px ; margin-left: 4px&quot;&gt;- repr()&lt;/p&gt;&lt;p style=&quot;margin: 0px ; margin-left: 4px&quot;&gt;&lt;br&gt;&lt;/p&gt;" style="verticalAlign=top;align=left;overflow=fill;fontSize=12;fontFamily=Helvetica;html=1;rounded=0;sketch=0;" parent="sEL-bxdKrqtqhlJgBILY-1" vertex="1"><mxGeometry x="400" y="-50" width="180" height="130" as="geometry"/></mxCell><mxCell id="erpxplRezBntidLb-jWZ-0" value="Name" style="swimlane;fontStyle=1;align=center;verticalAlign=top;childLayout=stackLayout;horizontal=1;startSize=26;horizontalStack=0;resizeParent=1;resizeParentMax=0;resizeLast=0;collapsible=1;marginBottom=0;rounded=0;sketch=0;" parent="sEL-bxdKrqtqhlJgBILY-1" vertex="1"><mxGeometry y="160" width="160" height="86" as="geometry"><mxRectangle y="160" width="70" height="26" as="alternateBounds"/></mxGeometry></mxCell><mxCell id="erpxplRezBntidLb-jWZ-1" value="+ value: str" style="text;strokeColor=none;fillColor=none;align=left;verticalAlign=top;spacingLeft=4;spacingRight=4;overflow=hidden;rotatable=0;points=[[0,0.5],[1,0.5]];portConstraint=eastwest;rounded=0;sketch=0;" parent="erpxplRezBntidLb-jWZ-0" vertex="1"><mxGeometry y="26" width="160" height="26" as="geometry"/></mxCell><mxCell id="erpxplRezBntidLb-jWZ-2" value="" style="line;strokeWidth=1;fillColor=none;align=left;verticalAlign=middle;spacingTop=-1;spacingLeft=3;spacingRight=3;rotatable=0;labelPosition=right;points=[];portConstraint=eastwest;rounded=0;sketch=0;" parent="erpxplRezBntidLb-jWZ-0" vertex="1"><mxGeometry y="52" width="160" height="8" as="geometry"/></mxCell><mxCell id="erpxplRezBntidLb-jWZ-3" value="+ value()" style="text;strokeColor=none;fillColor=none;align=left;verticalAlign=top;spacingLeft=4;spacingRight=4;overflow=hidden;rotatable=0;points=[[0,0.5],[1,0.5]];portConstraint=eastwest;rounded=0;sketch=0;" parent="erpxplRezBntidLb-jWZ-0" vertex="1"><mxGeometry y="60" width="160" height="26" as="geometry"/></mxCell><mxCell id="GEAN_Qf1zRc6wF1kLyWt-0" value="&lt;p style=&quot;margin: 0px ; margin-top: 4px ; text-align: center&quot;&gt;&lt;b&gt;Phone&lt;/b&gt;&lt;/p&gt;&lt;hr size=&quot;1&quot;&gt;&lt;p style=&quot;margin: 0px ; margin-left: 4px&quot;&gt;+ value: str&lt;br&gt;&lt;/p&gt;&lt;hr size=&quot;1&quot;&gt;&lt;p style=&quot;margin: 0px ; margin-left: 4px&quot;&gt;+ value()&lt;br&gt;&lt;/p&gt;" style="verticalAlign=top;align=left;overflow=fill;fontSize=12;fontFamily=Helvetica;html=1;rounded=0;sketch=0;" parent="sEL-bxdKrqtqhlJgBILY-1" vertex="1"><mxGeometry x="200" y="160" width="160" height="90" as="geometry"/></mxCell><mxCell id="GEAN_Qf1zRc6wF1kLyWt-1" value="&lt;p style=&quot;margin: 0px ; margin-top: 4px ; text-align: center&quot;&gt;&lt;b&gt;Birthday&lt;/b&gt;&lt;/p&gt;&lt;hr size=&quot;1&quot;&gt;&lt;p style=&quot;margin: 0px ; margin-left: 4px&quot;&gt;+ value: str&lt;br&gt;&lt;/p&gt;&lt;hr size=&quot;1&quot;&gt;&lt;p style=&quot;margin: 0px ; margin-left: 4px&quot;&gt;+ value()&lt;br&gt;&lt;/p&gt;" style="verticalAlign=top;align=left;overflow=fill;fontSize=12;fontFamily=Helvetica;html=1;rounded=0;sketch=0;" parent="sEL-bxdKrqtqhlJgBILY-1" vertex="1"><mxGeometry x="400" y="160" width="160" height="90" as="geometry"/></mxCell><mxCell id="GEAN_Qf1zRc6wF1kLyWt-2" value="&lt;p style=&quot;margin: 0px ; margin-top: 4px ; text-align: center&quot;&gt;&lt;b&gt;Address&lt;/b&gt;&lt;/p&gt;&lt;hr size=&quot;1&quot;&gt;&lt;p style=&quot;margin: 0px ; margin-left: 4px&quot;&gt;+ value: str&lt;br&gt;&lt;/p&gt;&lt;hr size=&quot;1&quot;&gt;&lt;p style=&quot;margin: 0px ; margin-left: 4px&quot;&gt;+ value()&lt;br&gt;&lt;/p&gt;" style="verticalAlign=top;align=left;overflow=fill;fontSize=12;fontFamily=Helvetica;html=1;rounded=0;sketch=0;" parent="sEL-bxdKrqtqhlJgBILY-1" vertex="1"><mxGeometry x="600" y="160" width="160" height="90" as="geometry"/></mxCell><mxCell id="GEAN_Qf1zRc6wF1kLyWt-3" value="&lt;p style=&quot;margin: 0px ; margin-top: 4px ; text-align: center&quot;&gt;&lt;b&gt;Email&lt;/b&gt;&lt;/p&gt;&lt;hr size=&quot;1&quot;&gt;&lt;p style=&quot;margin: 0px ; margin-left: 4px&quot;&gt;+ value: str&lt;br&gt;&lt;/p&gt;&lt;hr size=&quot;1&quot;&gt;&lt;p style=&quot;margin: 0px ; margin-left: 4px&quot;&gt;+ value()&lt;br&gt;&lt;/p&gt;" style="verticalAlign=top;align=left;overflow=fill;fontSize=12;fontFamily=Helvetica;html=1;rounded=0;sketch=0;" parent="sEL-bxdKrqtqhlJgBILY-1" vertex="1"><mxGeometry x="800" y="160" width="160" height="90" as="geometry"/></mxCell><mxCell id="GEAN_Qf1zRc6wF1kLyWt-4" value="" style="endArrow=none;html=1;edgeStyle=orthogonalEdgeStyle;rounded=1;sketch=0;curved=0;exitX=0.5;exitY=1;exitDx=0;exitDy=0;entryX=0.5;entryY=0;entryDx=0;entryDy=0;" parent="sEL-bxdKrqtqhlJgBILY-1" source="kiKf0ADsLlN5hotvPutV-0" target="erpxplRezBntidLb-jWZ-0" edge="1"><mxGeometry relative="1" as="geometry"><mxPoint x="400" y="120" as="sourcePoint"/><mxPoint x="80" y="150" as="targetPoint"/></mxGeometry></mxCell><mxCell id="GEAN_Qf1zRc6wF1kLyWt-5" value="parent" style="edgeLabel;resizable=0;html=1;align=left;verticalAlign=bottom;rounded=0;sketch=0;" parent="GEAN_Qf1zRc6wF1kLyWt-4" connectable="0" vertex="1"><mxGeometry x="-1" relative="1" as="geometry"/></mxCell><mxCell id="GEAN_Qf1zRc6wF1kLyWt-6" value="child" style="edgeLabel;resizable=0;html=1;align=right;verticalAlign=bottom;rounded=0;sketch=0;" parent="GEAN_Qf1zRc6wF1kLyWt-4" connectable="0" vertex="1"><mxGeometry x="1" relative="1" as="geometry"><mxPoint x="-10" as="offset"/></mxGeometry></mxCell><mxCell id="GEAN_Qf1zRc6wF1kLyWt-7" value="" style="endArrow=none;html=1;edgeStyle=orthogonalEdgeStyle;rounded=1;sketch=0;curved=0;entryX=0.5;entryY=0;entryDx=0;entryDy=0;" parent="sEL-bxdKrqtqhlJgBILY-1" target="GEAN_Qf1zRc6wF1kLyWt-0" edge="1"><mxGeometry relative="1" as="geometry"><mxPoint x="490" y="80" as="sourcePoint"/><mxPoint x="90" y="170" as="targetPoint"/><Array as="points"><mxPoint x="490" y="120"/><mxPoint x="280" y="120"/></Array></mxGeometry></mxCell><mxCell id="GEAN_Qf1zRc6wF1kLyWt-8" value="parent" style="edgeLabel;resizable=0;html=1;align=left;verticalAlign=bottom;rounded=0;sketch=0;" parent="GEAN_Qf1zRc6wF1kLyWt-7" connectable="0" vertex="1"><mxGeometry x="-1" relative="1" as="geometry"/></mxCell><mxCell id="GEAN_Qf1zRc6wF1kLyWt-9" value="child" style="edgeLabel;resizable=0;html=1;align=right;verticalAlign=bottom;rounded=0;sketch=0;" parent="GEAN_Qf1zRc6wF1kLyWt-7" connectable="0" vertex="1"><mxGeometry x="1" relative="1" as="geometry"><mxPoint x="-10" as="offset"/></mxGeometry></mxCell><mxCell id="GEAN_Qf1zRc6wF1kLyWt-10" value="" style="endArrow=none;html=1;edgeStyle=orthogonalEdgeStyle;rounded=1;sketch=0;curved=0;entryX=0.5;entryY=0;entryDx=0;entryDy=0;exitX=0.5;exitY=1;exitDx=0;exitDy=0;" parent="sEL-bxdKrqtqhlJgBILY-1" source="kiKf0ADsLlN5hotvPutV-0" target="GEAN_Qf1zRc6wF1kLyWt-1" edge="1"><mxGeometry relative="1" as="geometry"><mxPoint x="500" y="90" as="sourcePoint"/><mxPoint x="290" y="170" as="targetPoint"/><Array as="points"><mxPoint x="490" y="160"/></Array></mxGeometry></mxCell><mxCell id="GEAN_Qf1zRc6wF1kLyWt-11" value="parent" style="edgeLabel;resizable=0;html=1;align=left;verticalAlign=bottom;rounded=0;sketch=0;" parent="GEAN_Qf1zRc6wF1kLyWt-10" connectable="0" vertex="1"><mxGeometry x="-1" relative="1" as="geometry"/></mxCell><mxCell id="GEAN_Qf1zRc6wF1kLyWt-12" value="child" style="edgeLabel;resizable=0;html=1;align=right;verticalAlign=bottom;rounded=0;sketch=0;" parent="GEAN_Qf1zRc6wF1kLyWt-10" connectable="0" vertex="1"><mxGeometry x="1" relative="1" as="geometry"/></mxCell><mxCell id="GEAN_Qf1zRc6wF1kLyWt-16" value="" style="endArrow=none;html=1;edgeStyle=orthogonalEdgeStyle;rounded=1;sketch=0;curved=0;entryX=0.5;entryY=0;entryDx=0;entryDy=0;exitX=0.5;exitY=1;exitDx=0;exitDy=0;" parent="sEL-bxdKrqtqhlJgBILY-1" source="kiKf0ADsLlN5hotvPutV-0" edge="1"><mxGeometry relative="1" as="geometry"><mxPoint x="490" y="120" as="sourcePoint"/><mxPoint x="670" y="160" as="targetPoint"/><Array as="points"><mxPoint x="490" y="120"/><mxPoint x="680" y="120"/><mxPoint x="680" y="160"/></Array></mxGeometry></mxCell><mxCell id="GEAN_Qf1zRc6wF1kLyWt-17" value="parent" style="edgeLabel;resizable=0;html=1;align=left;verticalAlign=bottom;rounded=0;sketch=0;" parent="GEAN_Qf1zRc6wF1kLyWt-16" connectable="0" vertex="1"><mxGeometry x="-1" relative="1" as="geometry"/></mxCell><mxCell id="GEAN_Qf1zRc6wF1kLyWt-18" value="child" style="edgeLabel;resizable=0;html=1;align=right;verticalAlign=bottom;rounded=0;sketch=0;" parent="GEAN_Qf1zRc6wF1kLyWt-16" connectable="0" vertex="1"><mxGeometry x="1" relative="1" as="geometry"/></mxCell><mxCell id="GEAN_Qf1zRc6wF1kLyWt-19" value="" style="endArrow=none;html=1;edgeStyle=orthogonalEdgeStyle;rounded=1;sketch=0;curved=0;entryX=0.5;entryY=0;entryDx=0;entryDy=0;" parent="sEL-bxdKrqtqhlJgBILY-1" target="GEAN_Qf1zRc6wF1kLyWt-3" edge="1"><mxGeometry relative="1" as="geometry"><mxPoint x="490" y="120" as="sourcePoint"/><mxPoint x="880" y="150" as="targetPoint"/><Array as="points"><mxPoint x="880" y="120"/></Array></mxGeometry></mxCell><mxCell id="GEAN_Qf1zRc6wF1kLyWt-20" value="parent" style="edgeLabel;resizable=0;html=1;align=left;verticalAlign=bottom;rounded=0;sketch=0;" parent="GEAN_Qf1zRc6wF1kLyWt-19" connectable="0" vertex="1"><mxGeometry x="-1" relative="1" as="geometry"><mxPoint y="-40" as="offset"/></mxGeometry></mxCell><mxCell id="GEAN_Qf1zRc6wF1kLyWt-21" value="child" style="edgeLabel;resizable=0;html=1;align=right;verticalAlign=bottom;rounded=0;sketch=0;" parent="GEAN_Qf1zRc6wF1kLyWt-19" connectable="0" vertex="1"><mxGeometry x="1" relative="1" as="geometry"><mxPoint x="30" as="offset"/></mxGeometry></mxCell><mxCell id="GEAN_Qf1zRc6wF1kLyWt-22" value="&lt;p style=&quot;margin: 0px ; margin-top: 4px ; text-align: center&quot;&gt;&lt;b&gt;Record&lt;/b&gt;&lt;/p&gt;&lt;hr size=&quot;1&quot;&gt;&lt;p style=&quot;margin: 0px ; margin-left: 4px&quot;&gt;+ name: str&lt;/p&gt;&lt;p style=&quot;margin: 0px ; margin-left: 4px&quot;&gt;+ phone: list&lt;br&gt;&lt;/p&gt;&lt;p style=&quot;margin: 0px ; margin-left: 4px&quot;&gt;+ birthday: str&lt;br&gt;&lt;/p&gt;&lt;p style=&quot;margin: 0px ; margin-left: 4px&quot;&gt;+ address: str&lt;br&gt;&lt;/p&gt;&lt;p style=&quot;margin: 0px ; margin-left: 4px&quot;&gt;+ email: str&lt;br&gt;&lt;/p&gt;&lt;p style=&quot;margin: 0px ; margin-left: 4px&quot;&gt;&lt;br&gt;&lt;/p&gt;&lt;hr size=&quot;1&quot;&gt;&lt;p style=&quot;margin: 0px ; margin-left: 4px&quot;&gt;- str: str&lt;/p&gt;&lt;p style=&quot;margin: 0px ; margin-left: 4px&quot;&gt;+ add_phone()&lt;/p&gt;&lt;p style=&quot;margin: 0px ; margin-left: 4px&quot;&gt;+ del_phone()&lt;/p&gt;&lt;p style=&quot;margin: 0px ; margin-left: 4px&quot;&gt;+ edit_phone()&lt;/p&gt;&lt;p style=&quot;margin: 0px ; margin-left: 4px&quot;&gt;+ days_to_birthday()&lt;/p&gt;&lt;p style=&quot;margin: 0px ; margin-left: 4px&quot;&gt;&lt;br&gt;&lt;/p&gt;" style="verticalAlign=top;align=left;overflow=fill;fontSize=12;fontFamily=Helvetica;html=1;rounded=0;sketch=0;" parent="sEL-bxdKrqtqhlJgBILY-1" vertex="1"><mxGeometry y="320" width="160" height="210" as="geometry"/></mxCell><mxCell id="GEAN_Qf1zRc6wF1kLyWt-23" value="1" style="endArrow=open;html=1;endSize=12;startArrow=diamondThin;startSize=14;startFill=0;edgeStyle=orthogonalEdgeStyle;align=left;verticalAlign=bottom;rounded=1;sketch=0;curved=0;entryX=0.5;entryY=0;entryDx=0;entryDy=0;exitX=0.5;exitY=1;exitDx=0;exitDy=0;" parent="sEL-bxdKrqtqhlJgBILY-1" source="GEAN_Qf1zRc6wF1kLyWt-0" target="GEAN_Qf1zRc6wF1kLyWt-22" edge="1"><mxGeometry x="-0.8519" y="20" relative="1" as="geometry"><mxPoint x="290" y="280" as="sourcePoint"/><mxPoint x="80" y="280" as="targetPoint"/><Array as="points"><mxPoint x="280" y="280"/><mxPoint x="80" y="280"/></Array><mxPoint as="offset"/></mxGeometry></mxCell><mxCell id="GEAN_Qf1zRc6wF1kLyWt-24" value="1" style="endArrow=open;html=1;endSize=12;startArrow=diamondThin;startSize=14;startFill=0;edgeStyle=orthogonalEdgeStyle;align=left;verticalAlign=bottom;rounded=1;sketch=0;curved=0;" parent="sEL-bxdKrqtqhlJgBILY-1" edge="1"><mxGeometry x="-0.641" y="12" relative="1" as="geometry"><mxPoint x="82" y="250" as="sourcePoint"/><mxPoint x="82" y="320" as="targetPoint"/><Array as="points"><mxPoint x="78" y="250"/><mxPoint x="78" y="290"/><mxPoint x="82" y="290"/></Array><mxPoint as="offset"/></mxGeometry></mxCell><mxCell id="GEAN_Qf1zRc6wF1kLyWt-25" value="1" style="endArrow=open;html=1;endSize=12;startArrow=diamondThin;startSize=14;startFill=0;edgeStyle=orthogonalEdgeStyle;align=left;verticalAlign=bottom;rounded=1;sketch=0;curved=0;exitX=0.5;exitY=1;exitDx=0;exitDy=0;" parent="sEL-bxdKrqtqhlJgBILY-1" edge="1"><mxGeometry x="-0.8519" y="20" relative="1" as="geometry"><mxPoint x="480" y="250" as="sourcePoint"/><mxPoint x="80" y="320" as="targetPoint"/><Array as="points"><mxPoint x="480" y="280"/></Array><mxPoint as="offset"/></mxGeometry></mxCell><mxCell id="GEAN_Qf1zRc6wF1kLyWt-26" value="1" style="endArrow=open;html=1;endSize=12;startArrow=diamondThin;startSize=14;startFill=0;edgeStyle=orthogonalEdgeStyle;align=left;verticalAlign=bottom;rounded=1;sketch=0;curved=0;exitX=0.5;exitY=1;exitDx=0;exitDy=0;" parent="sEL-bxdKrqtqhlJgBILY-1" edge="1"><mxGeometry x="-0.8519" y="20" relative="1" as="geometry"><mxPoint x="680" y="250" as="sourcePoint"/><mxPoint x="80" y="320" as="targetPoint"/><Array as="points"><mxPoint x="680" y="280"/></Array><mxPoint as="offset"/></mxGeometry></mxCell><mxCell id="GEAN_Qf1zRc6wF1kLyWt-27" value="1" style="endArrow=open;html=1;endSize=12;startArrow=diamondThin;startSize=14;startFill=0;edgeStyle=orthogonalEdgeStyle;align=left;verticalAlign=bottom;rounded=1;sketch=0;curved=0;exitX=0.5;exitY=1;exitDx=0;exitDy=0;" parent="sEL-bxdKrqtqhlJgBILY-1" edge="1"><mxGeometry x="-0.8519" y="20" relative="1" as="geometry"><mxPoint x="880" y="250" as="sourcePoint"/><mxPoint x="80" y="320" as="targetPoint"/><Array as="points"><mxPoint x="880" y="280"/></Array><mxPoint as="offset"/></mxGeometry></mxCell><mxCell id="GEAN_Qf1zRc6wF1kLyWt-28" style="edgeStyle=orthogonalEdgeStyle;curved=0;rounded=1;sketch=0;orthogonalLoop=1;jettySize=auto;html=1;exitX=0.5;exitY=1;exitDx=0;exitDy=0;" parent="sEL-bxdKrqtqhlJgBILY-1" source="GEAN_Qf1zRc6wF1kLyWt-22" target="GEAN_Qf1zRc6wF1kLyWt-22" edge="1"><mxGeometry relative="1" as="geometry"/></mxCell><mxCell id="GEAN_Qf1zRc6wF1kLyWt-29" value="&lt;p style=&quot;margin: 0px ; margin-top: 4px ; text-align: center&quot;&gt;&lt;b&gt;AddressBook(UserDict)&lt;/b&gt;&lt;/p&gt;&lt;p style=&quot;margin: 0px ; margin-left: 4px&quot;&gt;&lt;br&gt;&lt;/p&gt;&lt;hr size=&quot;1&quot;&gt;&lt;p style=&quot;margin: 0px ; margin-left: 4px&quot;&gt;+ add_record()&lt;/p&gt;&lt;p style=&quot;margin: 0px ; margin-left: 4px&quot;&gt;+ iterator()&lt;/p&gt;" style="verticalAlign=top;align=left;overflow=fill;fontSize=12;fontFamily=Helvetica;html=1;rounded=0;sketch=0;" parent="sEL-bxdKrqtqhlJgBILY-1" vertex="1"><mxGeometry x="240" y="320" width="160" height="90" as="geometry"/></mxCell><mxCell id="GEAN_Qf1zRc6wF1kLyWt-30" value="1" style="endArrow=open;html=1;endSize=12;startArrow=diamondThin;startSize=14;startFill=0;edgeStyle=orthogonalEdgeStyle;align=left;verticalAlign=bottom;rounded=1;sketch=0;curved=0;" parent="sEL-bxdKrqtqhlJgBILY-1" edge="1"><mxGeometry x="-1" y="3" relative="1" as="geometry"><mxPoint x="161" y="377" as="sourcePoint"/><mxPoint x="240" y="370" as="targetPoint"/><Array as="points"><mxPoint x="161" y="370"/></Array></mxGeometry></mxCell><mxCell id="GEAN_Qf1zRc6wF1kLyWt-31" value="&lt;p style=&quot;margin: 0px ; margin-top: 4px ; text-align: center&quot;&gt;&lt;b&gt;Inputerror&lt;/b&gt;&lt;/p&gt;&lt;hr size=&quot;1&quot;&gt;&lt;p style=&quot;margin: 0px ; margin-left: 4px&quot;&gt;+ func&lt;/p&gt;&lt;hr size=&quot;1&quot;&gt;&lt;p style=&quot;margin: 0px ; margin-left: 4px&quot;&gt;- call()&lt;/p&gt;" style="verticalAlign=top;align=left;overflow=fill;fontSize=12;fontFamily=Helvetica;html=1;rounded=0;sketch=0;" parent="sEL-bxdKrqtqhlJgBILY-1" vertex="1"><mxGeometry x="480" y="320" width="160" height="90" as="geometry"/></mxCell><mxCell id="RD7NwFGXRRvb3kZBtPsr-0" value="AddressBook.bin" style="shape=folder;fontStyle=1;spacingTop=10;tabWidth=40;tabHeight=14;tabPosition=left;html=1;rounded=0;sketch=0;" parent="sEL-bxdKrqtqhlJgBILY-1" vertex="1"><mxGeometry x="240" y="470" width="160" height="50" as="geometry"/></mxCell><mxCell id="RD7NwFGXRRvb3kZBtPsr-1" value="1" style="endArrow=open;html=1;endSize=12;startArrow=diamondThin;startSize=14;startFill=0;edgeStyle=orthogonalEdgeStyle;align=left;verticalAlign=bottom;rounded=1;sketch=0;curved=0;exitX=0.5;exitY=1;exitDx=0;exitDy=0;entryX=0.5;entryY=0.2;entryDx=0;entryDy=0;entryPerimeter=0;" parent="sEL-bxdKrqtqhlJgBILY-1" source="GEAN_Qf1zRc6wF1kLyWt-29" target="RD7NwFGXRRvb3kZBtPsr-0" edge="1"><mxGeometry x="-1" y="3" relative="1" as="geometry"><mxPoint x="440" y="430" as="sourcePoint"/><mxPoint x="440" y="490" as="targetPoint"/><Array as="points"><mxPoint x="320" y="480"/><mxPoint x="320" y="480"/></Array></mxGeometry></mxCell></root></mxGraphModel></diagram><diagram id="VjUem3ES9gAfpFaviDM7" name="notebook.py"><mxGraphModel dx="2260" dy="1872" grid="1" gridSize="10" guides="1" tooltips="1" connect="1" arrows="1" fold="1" page="1" pageScale="1" pageWidth="850" pageHeight="1100" math="0" shadow="0"><root><mxCell id="yiAI4DylA_b-VQWy4YXi-0"/><mxCell id="yiAI4DylA_b-VQWy4YXi-1" parent="yiAI4DylA_b-VQWy4YXi-0"/><mxCell id="xWjOg1qyDsQT6FHRYt7f-0" value="&lt;p style=&quot;margin: 0px ; margin-top: 4px ; text-align: center&quot;&gt;&lt;i&gt;&amp;lt;&amp;lt;Interface&amp;gt;&amp;gt;&lt;/i&gt;&lt;br&gt;&lt;b&gt;&lt;i&gt;Field(ABC)&lt;/i&gt;&lt;/b&gt;&lt;/p&gt;&lt;hr size=&quot;1&quot;&gt;&lt;p style=&quot;margin: 0px ; margin-left: 4px&quot;&gt;+ value: str&lt;br&gt;&lt;/p&gt;&lt;hr size=&quot;1&quot;&gt;&lt;p style=&quot;margin: 0px ; margin-left: 4px&quot;&gt;- init()&lt;/p&gt;&lt;p style=&quot;margin: 0px ; margin-left: 4px&quot;&gt;- str()&lt;/p&gt;&lt;p style=&quot;margin: 0px ; margin-left: 4px&quot;&gt;- repr()&lt;/p&gt;&lt;p style=&quot;margin: 0px ; margin-left: 4px&quot;&gt;&lt;br&gt;&lt;/p&gt;" style="verticalAlign=top;align=left;overflow=fill;fontSize=12;fontFamily=Helvetica;html=1;rounded=0;sketch=0;" parent="yiAI4DylA_b-VQWy4YXi-1" vertex="1"><mxGeometry x="300" y="-40" width="180" height="130" as="geometry"/></mxCell><mxCell id="Mu4kvNgrzqfCnsZyosCE-0" value="&lt;p style=&quot;margin: 0px ; margin-top: 4px ; text-align: center&quot;&gt;&lt;b&gt;Title&lt;/b&gt;&lt;/p&gt;&lt;hr size=&quot;1&quot;&gt;&lt;p style=&quot;margin: 0px ; margin-left: 4px&quot;&gt;+ value: str&lt;br&gt;&lt;/p&gt;&lt;hr size=&quot;1&quot;&gt;&lt;p style=&quot;margin: 0px ; margin-left: 4px&quot;&gt;+ value()&lt;br&gt;&lt;/p&gt;" style="verticalAlign=top;align=left;overflow=fill;fontSize=12;fontFamily=Helvetica;html=1;rounded=0;sketch=0;" parent="yiAI4DylA_b-VQWy4YXi-1" vertex="1"><mxGeometry x="80" y="160" width="160" height="90" as="geometry"/></mxCell><mxCell id="Mu4kvNgrzqfCnsZyosCE-1" value="&lt;p style=&quot;margin: 0px ; margin-top: 4px ; text-align: center&quot;&gt;&lt;b&gt;Note&lt;/b&gt;&lt;/p&gt;&lt;hr size=&quot;1&quot;&gt;&lt;p style=&quot;margin: 0px ; margin-left: 4px&quot;&gt;+ value: str&lt;br&gt;&lt;/p&gt;&lt;hr size=&quot;1&quot;&gt;&lt;p style=&quot;margin: 0px ; margin-left: 4px&quot;&gt;+ value()&lt;br&gt;&lt;/p&gt;" style="verticalAlign=top;align=left;overflow=fill;fontSize=12;fontFamily=Helvetica;html=1;rounded=0;sketch=0;" parent="yiAI4DylA_b-VQWy4YXi-1" vertex="1"><mxGeometry x="320" y="160" width="160" height="90" as="geometry"/></mxCell><mxCell id="Mu4kvNgrzqfCnsZyosCE-2" value="&lt;p style=&quot;margin: 0px ; margin-top: 4px ; text-align: center&quot;&gt;&lt;b&gt;Tag&lt;/b&gt;&lt;/p&gt;&lt;hr size=&quot;1&quot;&gt;&lt;p style=&quot;margin: 0px ; margin-left: 4px&quot;&gt;+ value: str&lt;br&gt;&lt;/p&gt;&lt;hr size=&quot;1&quot;&gt;&lt;p style=&quot;margin: 0px ; margin-left: 4px&quot;&gt;+ value()&lt;br&gt;&lt;/p&gt;" style="verticalAlign=top;align=left;overflow=fill;fontSize=12;fontFamily=Helvetica;html=1;rounded=0;sketch=0;" parent="yiAI4DylA_b-VQWy4YXi-1" vertex="1"><mxGeometry x="560" y="160" width="160" height="90" as="geometry"/></mxCell><mxCell id="AT834nFgr7UBz92doQyf-0" value="" style="endArrow=none;html=1;edgeStyle=orthogonalEdgeStyle;rounded=1;sketch=0;curved=0;exitX=0.5;exitY=1;exitDx=0;exitDy=0;entryX=0.5;entryY=0;entryDx=0;entryDy=0;" parent="yiAI4DylA_b-VQWy4YXi-1" source="xWjOg1qyDsQT6FHRYt7f-0" edge="1"><mxGeometry relative="1" as="geometry"><mxPoint x="570" y="80" as="sourcePoint"/><mxPoint x="160" y="160" as="targetPoint"/><Array as="points"><mxPoint x="390" y="120"/><mxPoint x="160" y="120"/></Array></mxGeometry></mxCell><mxCell id="AT834nFgr7UBz92doQyf-1" value="parent" style="edgeLabel;resizable=0;html=1;align=left;verticalAlign=bottom;rounded=0;sketch=0;" parent="AT834nFgr7UBz92doQyf-0" connectable="0" vertex="1"><mxGeometry x="-1" relative="1" as="geometry"/></mxCell><mxCell id="AT834nFgr7UBz92doQyf-2" value="child" style="edgeLabel;resizable=0;html=1;align=right;verticalAlign=bottom;rounded=0;sketch=0;" parent="AT834nFgr7UBz92doQyf-0" connectable="0" vertex="1"><mxGeometry x="1" relative="1" as="geometry"><mxPoint x="-10" as="offset"/></mxGeometry></mxCell><mxCell id="AT834nFgr7UBz92doQyf-3" value="" style="endArrow=none;html=1;edgeStyle=orthogonalEdgeStyle;rounded=1;sketch=0;curved=0;exitX=0.556;exitY=1;exitDx=0;exitDy=0;entryX=0.5;entryY=0;entryDx=0;entryDy=0;exitPerimeter=0;" parent="yiAI4DylA_b-VQWy4YXi-1" source="xWjOg1qyDsQT6FHRYt7f-0" target="Mu4kvNgrzqfCnsZyosCE-1" edge="1"><mxGeometry relative="1" as="geometry"><mxPoint x="400" y="100" as="sourcePoint"/><mxPoint x="170" y="170" as="targetPoint"/><Array as="points"/></mxGeometry></mxCell><mxCell id="AT834nFgr7UBz92doQyf-4" value="parent" style="edgeLabel;resizable=0;html=1;align=left;verticalAlign=bottom;rounded=0;sketch=0;" parent="AT834nFgr7UBz92doQyf-3" connectable="0" vertex="1"><mxGeometry x="-1" relative="1" as="geometry"><mxPoint x="10" y="20" as="offset"/></mxGeometry></mxCell><mxCell id="AT834nFgr7UBz92doQyf-5" value="child" style="edgeLabel;resizable=0;html=1;align=right;verticalAlign=bottom;rounded=0;sketch=0;" parent="AT834nFgr7UBz92doQyf-3" connectable="0" vertex="1"><mxGeometry x="1" relative="1" as="geometry"><mxPoint x="-10" as="offset"/></mxGeometry></mxCell><mxCell id="AT834nFgr7UBz92doQyf-6" value="" style="endArrow=none;html=1;edgeStyle=orthogonalEdgeStyle;rounded=1;sketch=0;curved=0;" parent="yiAI4DylA_b-VQWy4YXi-1" edge="1"><mxGeometry relative="1" as="geometry"><mxPoint x="400" y="90" as="sourcePoint"/><mxPoint x="650" y="161" as="targetPoint"/><Array as="points"><mxPoint x="400" y="110"/><mxPoint x="650" y="110"/><mxPoint x="650" y="161"/></Array></mxGeometry></mxCell><mxCell id="AT834nFgr7UBz92doQyf-7" value="parent" style="edgeLabel;resizable=0;html=1;align=left;verticalAlign=bottom;rounded=0;sketch=0;" parent="AT834nFgr7UBz92doQyf-6" connectable="0" vertex="1"><mxGeometry x="-1" relative="1" as="geometry"><mxPoint x="10" y="20" as="offset"/></mxGeometry></mxCell><mxCell id="AT834nFgr7UBz92doQyf-8" value="child" style="edgeLabel;resizable=0;html=1;align=right;verticalAlign=bottom;rounded=0;sketch=0;" parent="AT834nFgr7UBz92doQyf-6" connectable="0" vertex="1"><mxGeometry x="1" relative="1" as="geometry"><mxPoint x="-10" as="offset"/></mxGeometry></mxCell><mxCell id="AT834nFgr7UBz92doQyf-9" value="Transator" style="swimlane;fontStyle=0;childLayout=stackLayout;horizontal=1;startSize=26;fillColor=none;horizontalStack=0;resizeParent=1;resizeParentMax=0;resizeLast=0;collapsible=1;marginBottom=0;rounded=0;sketch=0;" parent="yiAI4DylA_b-VQWy4YXi-1" vertex="1"><mxGeometry x="450" y="320" width="140" height="104" as="geometry"/></mxCell><mxCell id="AT834nFgr7UBz92doQyf-10" value="+ field: type" style="text;strokeColor=none;fillColor=none;align=left;verticalAlign=top;spacingLeft=4;spacingRight=4;overflow=hidden;rotatable=0;points=[[0,0.5],[1,0.5]];portConstraint=eastwest;rounded=0;sketch=0;" parent="AT834nFgr7UBz92doQyf-9" vertex="1"><mxGeometry y="26" width="140" height="26" as="geometry"/></mxCell><mxCell id="AT834nFgr7UBz92doQyf-11" value="+ field: type" style="text;strokeColor=none;fillColor=none;align=left;verticalAlign=top;spacingLeft=4;spacingRight=4;overflow=hidden;rotatable=0;points=[[0,0.5],[1,0.5]];portConstraint=eastwest;rounded=0;sketch=0;" parent="AT834nFgr7UBz92doQyf-9" vertex="1"><mxGeometry y="52" width="140" height="26" as="geometry"/></mxCell><mxCell id="AT834nFgr7UBz92doQyf-12" value="+ field: type" style="text;strokeColor=none;fillColor=none;align=left;verticalAlign=top;spacingLeft=4;spacingRight=4;overflow=hidden;rotatable=0;points=[[0,0.5],[1,0.5]];portConstraint=eastwest;rounded=0;sketch=0;" parent="AT834nFgr7UBz92doQyf-9" vertex="1"><mxGeometry y="78" width="140" height="26" as="geometry"/></mxCell><mxCell id="AT834nFgr7UBz92doQyf-13" value="1" style="endArrow=open;html=1;endSize=12;startArrow=diamondThin;startSize=14;startFill=0;edgeStyle=orthogonalEdgeStyle;align=left;verticalAlign=bottom;rounded=1;sketch=0;curved=0;exitX=0.5;exitY=1;exitDx=0;exitDy=0;entryX=0.5;entryY=0;entryDx=0;entryDy=0;" parent="yiAI4DylA_b-VQWy4YXi-1" source="Mu4kvNgrzqfCnsZyosCE-1" target="AT834nFgr7UBz92doQyf-9" edge="1"><mxGeometry x="-1" y="3" relative="1" as="geometry"><mxPoint x="430" y="300" as="sourcePoint"/><mxPoint x="590" y="300" as="targetPoint"/><Array as="points"><mxPoint x="400" y="275"/><mxPoint x="520" y="275"/></Array></mxGeometry></mxCell><mxCell id="AT834nFgr7UBz92doQyf-14" value="1" style="endArrow=open;html=1;endSize=12;startArrow=diamondThin;startSize=14;startFill=0;edgeStyle=orthogonalEdgeStyle;align=left;verticalAlign=bottom;rounded=1;sketch=0;curved=0;exitX=0.575;exitY=1.022;exitDx=0;exitDy=0;exitPerimeter=0;" parent="yiAI4DylA_b-VQWy4YXi-1" source="Mu4kvNgrzqfCnsZyosCE-2" edge="1"><mxGeometry x="-1" y="3" relative="1" as="geometry"><mxPoint x="650" y="260" as="sourcePoint"/><mxPoint x="520" y="320" as="targetPoint"/><Array as="points"><mxPoint x="652" y="275"/><mxPoint x="520" y="275"/></Array></mxGeometry></mxCell><mxCell id="NkAuJ2VObaHe6ppMtfZd-0" value="&lt;p style=&quot;margin: 0px ; margin-top: 4px ; text-align: center&quot;&gt;&lt;b&gt;Record&lt;/b&gt;&lt;/p&gt;&lt;hr size=&quot;1&quot;&gt;&lt;p style=&quot;margin: 0px ; margin-left: 4px&quot;&gt;+ title: str&lt;/p&gt;&lt;p style=&quot;margin: 0px ; margin-left: 4px&quot;&gt;+ note : str&lt;/p&gt;&lt;p style=&quot;margin: 0px ; margin-left: 4px&quot;&gt;+ tag: list&lt;/p&gt;&lt;hr size=&quot;1&quot;&gt;&lt;p style=&quot;margin: 0px ; margin-left: 4px&quot;&gt;+ add_tag()&lt;/p&gt;&lt;p style=&quot;margin: 0px ; margin-left: 4px&quot;&gt;+ add_note()&lt;/p&gt;&lt;p style=&quot;margin: 0px ; margin-left: 4px&quot;&gt;+ find_note()&lt;/p&gt;&lt;p style=&quot;margin: 0px ; margin-left: 4px&quot;&gt;+ delete_note()&lt;/p&gt;&lt;p style=&quot;margin: 0px ; margin-left: 4px&quot;&gt;&lt;br&gt;&lt;/p&gt;" style="verticalAlign=top;align=left;overflow=fill;fontSize=12;fontFamily=Helvetica;html=1;rounded=0;sketch=0;" parent="yiAI4DylA_b-VQWy4YXi-1" vertex="1"><mxGeometry x="80" y="480" width="160" height="190" as="geometry"/></mxCell><mxCell id="glDcOO8Fq4tTcjyoEy4K-0" value="&lt;p style=&quot;margin: 0px ; margin-top: 4px ; text-align: center&quot;&gt;&lt;b&gt;NoteBook(UserDict)&lt;/b&gt;&lt;/p&gt;&lt;p style=&quot;margin: 0px ; margin-left: 4px&quot;&gt;&lt;br&gt;&lt;/p&gt;&lt;hr size=&quot;1&quot;&gt;&lt;p style=&quot;margin: 0px ; margin-left: 4px&quot;&gt;+ add_record()&lt;/p&gt;&lt;p style=&quot;margin: 0px ; margin-left: 4px&quot;&gt;+ iterator()&lt;/p&gt;" style="verticalAlign=top;align=left;overflow=fill;fontSize=12;fontFamily=Helvetica;html=1;rounded=0;sketch=0;" parent="yiAI4DylA_b-VQWy4YXi-1" vertex="1"><mxGeometry x="320" y="480" width="160" height="90" as="geometry"/></mxCell><mxCell id="glDcOO8Fq4tTcjyoEy4K-1" value="&lt;p style=&quot;margin: 0px ; margin-top: 4px ; text-align: center&quot;&gt;&lt;b&gt;Inputerror&lt;/b&gt;&lt;/p&gt;&lt;hr size=&quot;1&quot;&gt;&lt;p style=&quot;margin: 0px ; margin-left: 4px&quot;&gt;+ func&lt;/p&gt;&lt;hr size=&quot;1&quot;&gt;&lt;p style=&quot;margin: 0px ; margin-left: 4px&quot;&gt;- call()&lt;/p&gt;" style="verticalAlign=top;align=left;overflow=fill;fontSize=12;fontFamily=Helvetica;html=1;rounded=0;sketch=0;" parent="yiAI4DylA_b-VQWy4YXi-1" vertex="1"><mxGeometry x="560" y="480" width="160" height="90" as="geometry"/></mxCell><mxCell id="glDcOO8Fq4tTcjyoEy4K-2" value="NoteBook.bin" style="shape=folder;fontStyle=1;spacingTop=10;tabWidth=40;tabHeight=14;tabPosition=left;html=1;rounded=0;sketch=0;" parent="yiAI4DylA_b-VQWy4YXi-1" vertex="1"><mxGeometry x="320" y="630" width="160" height="50" as="geometry"/></mxCell><mxCell id="glDcOO8Fq4tTcjyoEy4K-3" value="1" style="endArrow=open;html=1;endSize=12;startArrow=diamondThin;startSize=14;startFill=0;edgeStyle=orthogonalEdgeStyle;align=left;verticalAlign=bottom;rounded=1;sketch=0;curved=0;exitX=0.5;exitY=1;exitDx=0;exitDy=0;entryX=0.5;entryY=0.2;entryDx=0;entryDy=0;entryPerimeter=0;" parent="yiAI4DylA_b-VQWy4YXi-1" source="glDcOO8Fq4tTcjyoEy4K-0" target="glDcOO8Fq4tTcjyoEy4K-2" edge="1"><mxGeometry x="-1" y="3" relative="1" as="geometry"><mxPoint x="520" y="590" as="sourcePoint"/><mxPoint x="520" y="650" as="targetPoint"/><Array as="points"><mxPoint x="400" y="640"/><mxPoint x="400" y="640"/></Array></mxGeometry></mxCell><mxCell id="kXBOppBihnIz1HAexcM9-0" value="1" style="endArrow=open;html=1;endSize=12;startArrow=diamondThin;startSize=14;startFill=0;edgeStyle=orthogonalEdgeStyle;align=left;verticalAlign=bottom;rounded=1;sketch=0;curved=0;entryX=0;entryY=0.5;entryDx=0;entryDy=0;exitX=1;exitY=0.25;exitDx=0;exitDy=0;" parent="yiAI4DylA_b-VQWy4YXi-1" source="NkAuJ2VObaHe6ppMtfZd-0" target="glDcOO8Fq4tTcjyoEy4K-0" edge="1"><mxGeometry x="-1" y="3" relative="1" as="geometry"><mxPoint x="161" y="377" as="sourcePoint"/><mxPoint x="240" y="370" as="targetPoint"/><Array as="points"><mxPoint x="240" y="520"/><mxPoint x="300" y="520"/><mxPoint x="300" y="525"/></Array></mxGeometry></mxCell><mxCell id="BCCejjRfiwHxnICYOKoq-0" value="1" style="endArrow=open;html=1;endSize=12;startArrow=diamondThin;startSize=14;startFill=0;edgeStyle=orthogonalEdgeStyle;align=left;verticalAlign=bottom;rounded=1;sketch=0;curved=0;exitX=0.575;exitY=1.022;exitDx=0;exitDy=0;exitPerimeter=0;entryX=0.5;entryY=0;entryDx=0;entryDy=0;" parent="yiAI4DylA_b-VQWy4YXi-1" target="NkAuJ2VObaHe6ppMtfZd-0" edge="1"><mxGeometry x="-1" y="3" relative="1" as="geometry"><mxPoint x="662" y="261.98" as="sourcePoint"/><mxPoint x="160" y="440" as="targetPoint"/><Array as="points"><mxPoint x="662" y="440"/><mxPoint x="160" y="440"/></Array></mxGeometry></mxCell><mxCell id="BCCejjRfiwHxnICYOKoq-1" value="1" style="endArrow=open;html=1;endSize=12;startArrow=diamondThin;startSize=14;startFill=0;edgeStyle=orthogonalEdgeStyle;align=left;verticalAlign=bottom;rounded=1;sketch=0;curved=0;" parent="yiAI4DylA_b-VQWy4YXi-1" edge="1"><mxGeometry x="-1" y="3" relative="1" as="geometry"><mxPoint x="400" y="250" as="sourcePoint"/><mxPoint x="160" y="480" as="targetPoint"/><Array as="points"><mxPoint x="400" y="440"/><mxPoint x="160" y="440"/></Array></mxGeometry></mxCell><mxCell id="BCCejjRfiwHxnICYOKoq-2" value="1" style="endArrow=open;html=1;endSize=12;startArrow=diamondThin;startSize=14;startFill=0;edgeStyle=orthogonalEdgeStyle;align=left;verticalAlign=bottom;rounded=1;sketch=0;curved=0;" parent="yiAI4DylA_b-VQWy4YXi-1" edge="1"><mxGeometry x="-1" y="3" relative="1" as="geometry"><mxPoint x="160" y="260" as="sourcePoint"/><mxPoint x="160" y="480" as="targetPoint"/><Array as="points"><mxPoint x="160" y="250"/></Array></mxGeometry></mxCell></root></mxGraphModel></diagram><diagram id="e1zGBAl6Z3z4c3WHW7gx" name="clean_folder.py"><mxGraphModel dx="1356" dy="463" grid="1" gridSize="10" guides="1" tooltips="1" connect="1" arrows="1" fold="1" page="1" pageScale="1" pageWidth="850" pageHeight="1100" math="0" shadow="0"><root><mxCell id="b2LZNcjO7VNIUJovMCYg-0"/><mxCell id="b2LZNcjO7VNIUJovMCYg-1" parent="b2LZNcjO7VNIUJovMCYg-0"/><mxCell id="b2LZNcjO7VNIUJovMCYg-2" value="clean_folder.py" style="shape=module;align=left;spacingLeft=20;align=center;verticalAlign=top;rounded=0;sketch=0;" parent="b2LZNcjO7VNIUJovMCYg-1" vertex="1"><mxGeometry x="320" y="40" width="130" height="50" as="geometry"/></mxCell><mxCell id="b2LZNcjO7VNIUJovMCYg-3" value="normalize.py" style="shape=module;align=left;spacingLeft=20;align=center;verticalAlign=top;rounded=0;sketch=0;" parent="b2LZNcjO7VNIUJovMCYg-1" vertex="1"><mxGeometry x="190" y="160" width="130" height="50" as="geometry"/></mxCell><mxCell id="b2LZNcjO7VNIUJovMCYg-4" value="file_parser.py" style="shape=module;align=left;spacingLeft=20;align=center;verticalAlign=top;rounded=0;sketch=0;" parent="b2LZNcjO7VNIUJovMCYg-1" vertex="1"><mxGeometry x="450" y="160" width="130" height="50" as="geometry"/></mxCell><mxCell id="b2LZNcjO7VNIUJovMCYg-5" value="1" style="endArrow=open;html=1;endSize=12;startArrow=diamondThin;startSize=14;startFill=1;edgeStyle=orthogonalEdgeStyle;align=left;verticalAlign=bottom;rounded=1;sketch=0;curved=0;exitX=0.5;exitY=1;exitDx=0;exitDy=0;" parent="b2LZNcjO7VNIUJovMCYg-1" source="b2LZNcjO7VNIUJovMCYg-2" edge="1"><mxGeometry x="-1" y="3" relative="1" as="geometry"><mxPoint x="350" y="260" as="sourcePoint"/><mxPoint x="450" y="190" as="targetPoint"/><Array as="points"><mxPoint x="385" y="190"/><mxPoint x="450" y="190"/></Array></mxGeometry></mxCell><mxCell id="b2LZNcjO7VNIUJovMCYg-7" value="1" style="endArrow=open;html=1;endSize=12;startArrow=diamondThin;startSize=14;startFill=1;edgeStyle=orthogonalEdgeStyle;align=left;verticalAlign=bottom;rounded=1;sketch=0;curved=0;exitX=0.5;exitY=1;exitDx=0;exitDy=0;" parent="b2LZNcjO7VNIUJovMCYg-1" source="b2LZNcjO7VNIUJovMCYg-2" edge="1"><mxGeometry x="-1" y="3" relative="1" as="geometry"><mxPoint x="395" y="100" as="sourcePoint"/><mxPoint x="320" y="185" as="targetPoint"/><Array as="points"><mxPoint x="385" y="185"/></Array></mxGeometry></mxCell></root></mxGraphModel></diagram></mxfile>